<svg width="251" height="250" viewBox="0 0 251 250" fill="none" xmlns="http://www.w3.org/2000/svg">
<path fill-rule="evenodd" clip-rule="evenodd" d="M100.614 2.40189C82.9651 5.91241 66.3627 13.1747 51.8924 23.6082L69.8601 41.5759C80.6224 34.4625 92.714 29.463 105.491 26.9215C124.889 23.063 144.996 25.0433 163.268 32.6121C181.541 40.1809 197.159 52.9981 208.147 69.4431C219.135 85.888 225 105.222 225 125C225 144.778 219.135 164.112 208.147 180.557C204.528 185.974 200.406 190.997 195.853 195.568L213.53 213.246C219.236 207.522 224.4 201.231 228.934 194.446C242.669 173.89 250 149.723 250 125C250 100.277 242.669 76.11 228.934 55.5538C215.199 34.9977 195.676 18.9761 172.835 9.51513C149.995 0.0541668 124.861 -2.42126 100.614 2.40189ZM198.273 226.273L180.311 208.311C174.962 211.862 169.258 214.907 163.268 217.388C144.996 224.957 124.889 226.937 105.491 223.079C92.7139 220.537 80.6224 215.538 69.8601 208.424L51.8924 226.392C66.3627 236.825 82.9651 244.088 100.614 247.598C124.861 252.421 149.995 249.946 172.835 240.485C181.887 236.736 190.417 231.956 198.273 226.273ZM110.368 198.559C102.484 196.991 94.9485 194.175 88.0295 190.255L107.705 170.579C110.222 171.534 112.825 172.283 115.489 172.813C124.946 174.694 134.748 173.729 143.656 170.039C152.564 166.349 160.177 160.101 165.534 152.084C170.891 144.067 173.75 134.642 173.75 125C173.75 115.358 170.891 105.933 165.534 97.916C163.789 95.3042 161.804 92.8801 159.613 90.671L178.175 72.1094C181.576 75.5285 184.655 79.2839 187.36 83.3323C195.601 95.666 200 110.166 200 125C200 139.834 195.601 154.334 187.36 166.668C179.119 179.002 167.406 188.614 153.701 194.291C139.997 199.968 124.917 201.453 110.368 198.559ZM162.152 59.8483C159.434 58.2987 156.613 56.9151 153.701 55.7091C139.997 50.0325 124.917 48.5473 110.368 51.4412C102.484 53.0093 94.9486 55.8253 88.0295 59.7453L107.705 79.421C110.222 78.4658 112.825 77.7167 115.489 77.1868C124.539 75.3867 133.905 76.1933 142.501 79.4996L162.152 59.8483Z" fill="#89A"/>
<path fill-rule="evenodd" clip-rule="evenodd" d="M0 125C5.00582e-06 158.152 13.1696 189.946 36.6117 213.388L54.7176 195.283C53.0165 193.147 52 190.442 52 187.5C52 180.596 57.5964 175 64.5 175C67.4423 175 70.1471 176.017 72.2824 177.718L92.0742 157.926C88.3379 154.456 86 149.501 86 144C86 133.507 94.5066 125 105 125C110.501 125 115.456 127.338 118.926 131.074L125 125L78.2923 78.2924C75.9721 86.7698 68.2136 93.0001 59 93.0001C47.9543 93.0001 39 84.0458 39 73.0001C39 63.7865 45.2302 56.028 53.7077 53.7078L36.6116 36.6118C22.6216 50.6018 12.2902 67.5665 6.23329 86.0193C6.48724 86.0065 6.74287 86.0001 7 86.0001C15.2843 86.0001 22 92.7158 22 101C22 109.284 15.2843 116 7 116C4.64834 116 2.42307 115.459 0.441947 114.494C0.148471 117.975 -5.31509e-07 121.48 0 125ZM46.5 150C53.4036 150 59 144.404 59 137.5C59 130.597 53.4036 125 46.5 125C39.5964 125 34 130.597 34 137.5C34 144.404 39.5964 150 46.5 150Z" fill="#89A"/>
</svg>
