<svg width="25" height="24" viewBox="0 0 25 24" fill="none" xmlns="http://www.w3.org/2000/svg">
<path fill-rule="evenodd" clip-rule="evenodd" d="M9.6589 0.230581C7.96464 0.567591 6.3708 1.26477 4.98166 2.26639L6.70655 3.99128C7.73973 3.3084 8.90053 2.82845 10.1271 2.58446C11.9893 2.21405 13.9196 2.40416 15.6737 3.13076C17.4279 3.85736 18.9272 5.08782 19.9821 6.66653C21.037 8.24524 21.6 10.1013 21.6 12C21.6 13.8987 21.0369 15.7548 19.9821 17.3335C19.6346 17.8535 19.239 18.3357 18.8018 18.7746L20.4989 20.4716C21.0466 19.9221 21.5424 19.3182 21.9776 18.6668C23.2962 16.6935 24 14.3734 24 12C24 9.62663 23.2962 7.30655 21.9776 5.33316C20.659 3.35977 18.7849 1.8217 16.5922 0.913452C14.3995 0.00520001 11.9867 -0.232441 9.6589 0.230581ZM19.0341 21.7222L17.3098 19.9978C16.7963 20.3388 16.2487 20.6311 15.6737 20.8692C13.9196 21.5958 11.9893 21.786 10.1271 21.4155C8.90052 21.1715 7.73973 20.6916 6.70655 20.0087L4.98166 21.7336C6.3708 22.7352 7.96463 23.4324 9.65889 23.7694C11.9867 24.2324 14.3995 23.9948 16.5922 23.0866C17.4611 22.7266 18.28 22.2678 19.0341 21.7222ZM10.5953 19.0617C9.83849 18.9111 9.11505 18.6408 8.45082 18.2645L10.3397 16.3756C10.5813 16.4673 10.8312 16.5392 11.087 16.5901C11.9948 16.7707 12.9358 16.678 13.7909 16.3238C14.6461 15.9695 15.377 15.3697 15.8913 14.6001C16.4055 13.8304 16.68 12.9256 16.68 12C16.68 11.0744 16.4055 10.1696 15.8913 9.39993C15.7237 9.1492 15.5332 8.91648 15.3229 8.70441L17.1048 6.92249C17.4313 7.25073 17.7269 7.61125 17.9866 7.9999C18.7777 9.18393 19.2 10.576 19.2 12C19.2 13.424 18.7777 14.8161 17.9866 16.0001C17.1954 17.1841 16.0709 18.107 14.7553 18.6519C13.4397 19.1969 11.992 19.3395 10.5953 19.0617ZM15.5666 5.74543C15.3057 5.59667 15.0348 5.46384 14.7553 5.34807C13.4397 4.80312 11.992 4.66054 10.5953 4.93835C9.83849 5.08889 9.11505 5.35923 8.45082 5.73555L10.3397 7.62441C10.5813 7.53271 10.8312 7.4608 11.087 7.40993C11.9557 7.23712 12.8548 7.31455 13.68 7.63195L15.5666 5.74543Z" fill="#153B52"/>
<path fill-rule="evenodd" clip-rule="evenodd" d="M0 12C0 15.1826 1.26428 18.2348 3.51472 20.4853L5.25288 18.7471C5.08958 18.5421 4.992 18.2824 4.992 18C4.992 17.3373 5.52926 16.8 6.192 16.8C6.47445 16.8 6.73411 16.8976 6.9391 17.0609L8.83911 15.1609C8.48043 14.8278 8.256 14.3521 8.256 13.824C8.256 12.8166 9.07263 12 10.08 12C10.6081 12 11.0838 12.2244 11.4169 12.5831L12 12L7.51606 7.51605C7.29332 8.32989 6.54851 8.928 5.664 8.928C4.60361 8.928 3.744 8.06839 3.744 7.008C3.744 6.12349 4.34211 5.37868 5.15595 5.15594L3.51471 3.51471C2.17167 4.85776 1.17985 6.48638 0.59839 8.25785C0.622772 8.25662 0.647313 8.256 0.672 8.256C1.46729 8.256 2.112 8.90071 2.112 9.696C2.112 10.4913 1.46729 11.136 0.672 11.136C0.44624 11.136 0.232614 11.084 0.0424256 10.9914C0.0142528 11.3256 0 11.6621 0 12ZM4.464 14.4C5.12674 14.4 5.664 13.8627 5.664 13.2C5.664 12.5373 5.12674 12 4.464 12C3.80126 12 3.264 12.5373 3.264 13.2C3.264 13.8627 3.80126 14.4 4.464 14.4Z" fill="#153B52"/>
</svg>
